<svg width="35" height="33" viewBox="0 0 35 33" fill="none" xmlns="http://www.w3.org/2000/svg">
<path d="M28.0343 8.16833C26.7701 6.91106 26.0733 5.29642 26.0739 3.625H20.3589V23.6028C20.3149 24.6839 19.7909 25.7079 18.8974 26.4592C18.0039 27.2105 16.8106 27.6304 15.5688 27.6306C12.9425 27.6306 10.7601 25.7617 10.7601 23.4417C10.7601 20.6706 13.8302 18.5922 16.9929 19.4461V14.355C10.6121 13.6139 5.02667 17.9317 5.02667 23.4417C5.02667 28.8067 10.1313 32.625 15.5503 32.625C21.3577 32.625 26.0739 28.5167 26.0739 23.4417V13.3078C28.3913 14.7575 31.1736 15.5354 34.0267 15.5311V10.5528C34.0267 10.5528 30.5496 10.6978 28.0343 8.16833Z" fill="#21243D"/>
</svg>
